<svg width="56" height="56" viewBox="0 0 56 56" fill="none" xmlns="http://www.w3.org/2000/svg">
<circle cx="28" cy="28" r="28" fill="#F4F7FE"/>
<g clip-path="url(#clip0_111_701)">
<path d="M29.6932 35.8492C29.6932 33.6826 30.8849 31.7326 32.6182 30.7576C31.2099 30.2159 29.4765 29.8909 27.5265 29.8909C22.7599 29.8909 18.8599 31.8409 18.8599 34.2242V36.3909H29.6932V35.8492ZM35.6515 32.0576C33.5932 32.0576 31.8599 33.7909 31.8599 35.8492C31.8599 37.9076 33.5932 39.6409 35.6515 39.6409C37.7099 39.6409 39.4432 37.9076 39.4432 35.8492C39.4432 33.7909 37.7099 32.0576 35.6515 32.0576ZM31.8599 23.3909C31.8599 25.7742 29.9099 27.7242 27.5265 27.7242C25.1432 27.7242 23.1932 25.7742 23.1932 23.3909C23.1932 21.0076 25.1432 19.0576 27.5265 19.0576C29.9099 19.0576 31.8599 21.0076 31.8599 23.3909Z" fill="#4318FF"/>
</g>
<defs>
<clipPath id="clip0_111_701">
<rect width="32.8417" height="32.8417" fill="white" transform="translate(11.5264 11.7242)"/>
</clipPath>
</defs>
</svg>
